HIERARCHY
ROOT Hips
{
     OFFSET -16.65530 101.87100 -46.23590
     CHANNELS 6 Xposition Yposition Zposition Zrotation Xrotation Yrotation
     JOINT Spine
     {
          OFFSET 0.00000 11.89050 0.00000
          CHANNELS 3 Zrotation Xrotation Yrotation
          JOINT Spine1
          {
               OFFSET 0.00000 25.65740 0.12766
               CHANNELS 3 Zrotation Xrotation Yrotation
               JOINT HEad
               {
                    OFFSET 0.00000 8.73416 0.01134
                    CHANNELS 3 Zrotation Xrotation Yrotation
                    End Site
                    {
                         OFFSET -0.29000 12.77420 2.51395
                    }
               }
               JOINT LeftShoulder1
               {
                    OFFSET 8.99000 -0.36225 -0.22000
                    CHANNELS 3 Zrotation Xrotation Yrotation
                    JOINT LeftArm
                    {
                         OFFSET 10.28270 -0.00338 0.32212
                         CHANNELS 3 Zrotation Xrotation Yrotation
                         JOINT LeftForeArm
                         {
                              OFFSET 32.76690 0.09914 -1.42434
                              CHANNELS 3 Zrotation Xrotation Yrotation
                              JOINT LeftHand
                              {
                                   OFFSET 27.56430 0.08536 1.02216
                                   CHANNELS 3 Zrotation Xrotation Yrotation
                                   End Site
                                   {
                                        OFFSET 16.74430 -0.60000 1.50291
                                   }
                              }
                         }
                    }
               }
               JOINT RightShoulder
               {
                    OFFSET -8.99000 -0.36225 -0.22000
                    CHANNELS 3 Zrotation Xrotation Yrotation
                    JOINT RightArm
                    {
                         OFFSET -10.28270 -0.00338 0.32212
                         CHANNELS 3 Zrotation Xrotation Yrotation
                         JOINT RightForeArm
                         {
                              OFFSET -32.89710 0.09914 -1.42434
                              CHANNELS 3 Zrotation Xrotation Yrotation
                              JOINT RightHand
                              {
                                   OFFSET -27.49210 0.08536 1.02216
                                   CHANNELS 3 Zrotation Xrotation Yrotation
                                   End Site
                                   {
                                        OFFSET -16.63120 -0.60000 1.50291
                                   }
                              }
                         }
                    }
               }
          }
     }
     JOINT LeftUpLeg
     {
          OFFSET 8.94580 -8.66707 0.10165
          CHANNELS 3 Zrotation Xrotation Yrotation
          JOINT LeftLeg
          {
               OFFSET 0.00000 -44.42270 1.37270
               CHANNELS 3 Zrotation Xrotation Yrotation
               JOINT LeftFoot
               {
                    OFFSET -0.25355 -42.09240 -1.46059
                    CHANNELS 3 Zrotation Xrotation Yrotation
                    JOINT LeftToes
                    {
                         OFFSET -0.04000 -4.41509 8.49910
                         CHANNELS 3 Zrotation Xrotation Yrotation
                         End Site
                         {
                              OFFSET 0.08000 -0.04745 9.77979
                         }
                    }
               }
          }
     }
     JOINT RightUpLeg
     {
          OFFSET -8.94580 -8.66707 0.10165
          CHANNELS 3 Zrotation Xrotation Yrotation
          JOINT RightLeg
          {
               OFFSET 0.00000 -44.42270 1.37270
               CHANNELS 3 Zrotation Xrotation Yrotation
               JOINT RightFoot
               {
                    OFFSET 0.25355 -42.09240 -1.46059
                    CHANNELS 3 Zrotation Xrotation Yrotation
                    JOINT RightToes
                    {
                         OFFSET 0.04000 -4.41509 8.49910
                         CHANNELS 3 Zrotation Xrotation Yrotation
                         End Site
                         {
                              OFFSET -0.08000 -0.13745 9.77979
                         }
                    }
               }
          }
     }
}
MOTION
Frames: 21
Frame Time: 0.01667
39.88550 99.29080 -41.49100 -5.97291 3.22588 -124.67900 1.02040 3.86495 2.18388 -5.49580 8.17777 4.82031 4.33059 -9.81719 -8.29769 0.00000 0.00000 0.00000 -67.54160 -4.02126 15.91250 -0.83445 12.17620 -13.32500 16.61020 10.71350 10.26470 -10.88130 0.64472 -11.57920 23.48350 -53.73540 88.95020 150.91100 -48.73280 164.16100 15.69270 8.13091 -16.68860 16.92450 -8.39892 3.50666 -7.21551 4.62009 33.11760 2.55306 -8.62405 0.05846 11.99480 16.48630 -2.75723 -10.66640 8.54413 -4.16515 2.08250 17.36840 -24.98470 22.25790 -25.15310 3.27714 14.36330 33.12600 -32.57070 
38.59110 99.14090 -41.21230 -5.91611 3.38135 -123.71500 1.25063 3.83077 2.13943 -5.35706 8.14972 4.79624 4.21900 -10.29100 -8.22530 0.00000 0.00000 0.00000 -67.70850 -4.57082 16.35600 -0.90596 12.52330 -13.84250 16.70830 10.69430 10.08880 -10.94740 0.64950 -11.56230 23.60440 -53.67690 88.95130 153.30200 -41.76610 165.95500 11.69160 8.23113 -19.76000 16.89100 -8.24072 4.05381 -7.62046 4.99671 34.48400 3.38532 -7.57040 0.02767 11.94350 16.39870 -2.16585 -11.11120 9.14451 -3.66482 2.06039 17.90610 -24.06970 22.17330 -24.76220 3.18377 14.79280 32.83900 -35.01940 
37.21440 99.04270 -40.86660 -5.92267 3.50405 -122.72800 1.43084 3.79860 2.09336 -5.25177 8.12101 4.77551 4.25895 -10.51190 -8.23853 0.00000 0.00000 0.00000 -68.03370 -4.82392 16.61570 -0.91289 12.66230 -14.24820 16.70950 10.69320 10.08000 -10.91990 0.64553 -11.53120 23.60120 -53.59100 88.82830 155.14700 -34.40550 167.10699 7.14594 8.70802 -21.73790 16.69400 -8.19311 4.76265 -7.91687 5.66798 34.92550 3.87301 -6.23200 -0.02644 12.23120 16.73510 -1.43984 -11.71170 9.76616 -3.03197 2.15680 18.47840 -23.16340 21.99480 -24.26070 3.05430 15.44460 32.82870 -37.63410 
35.77300 99.00560 -40.45730 -6.02610 3.56752 -121.71200 1.51555 3.77553 2.05277 -5.20092 8.09784 4.76258 4.44160 -10.38670 -8.33574 0.00000 0.00000 0.00000 -68.49280 -4.78563 16.68270 -0.85304 12.67460 -14.51540 16.59390 10.70850 10.23460 -10.81330 0.63411 -11.48630 23.55260 -53.49900 88.62970 156.54900 -27.54130 167.70599 2.63512 9.36811 -22.54540 16.27610 -8.28595 5.66996 -8.04452 6.67399 34.34760 3.93569 -4.84924 -0.08335 12.56100 17.13530 -0.75248 -12.48870 10.42840 -2.32285 2.35110 19.02950 -22.44850 21.82060 -23.48990 2.87396 16.17450 32.97520 -40.06510 
34.27710 99.02090 -39.98090 -6.23986 3.55951 -120.66500 1.49863 3.76625 2.01919 -5.20722 8.08565 4.75300 4.67771 -9.99795 -8.46715 0.00000 0.00000 0.00000 -69.04110 -4.52708 16.58890 -0.72919 12.70180 -14.67180 16.36310 10.72810 10.46790 -10.66080 0.61825 -11.42820 23.57620 -53.43640 88.45890 157.72301 -21.62130 167.95300 -1.29791 9.99014 -22.55640 15.60200 -8.49402 6.70548 -7.97698 7.97847 32.92980 3.64432 -3.59480 -0.12375 12.43370 16.95550 -0.22074 -13.43840 11.11090 -1.56844 2.60376 19.55640 -22.06140 21.67110 -22.27260 2.61270 16.82010 33.11140 -42.11940 
32.73170 99.07450 -39.43690 -6.54806 3.46979 -119.60600 1.39114 3.77010 1.99276 -5.26203 8.08233 4.74539 4.86944 -9.47144 -8.58686 0.00000 0.00000 0.00000 -69.62180 -4.16231 16.40150 -0.55094 12.91220 -14.83570 16.05280 10.74810 10.74450 -10.50400 0.60181 -11.36230 23.72250 -53.43340 88.38330 158.92000 -16.23550 168.08099 -4.42064 10.47490 -22.29220 14.66400 -8.72023 7.73251 -7.73168 9.40960 31.05890 3.19002 -2.51325 -0.14421 11.56800 15.80490 0.22211 -14.54410 11.75340 -0.73529 2.89705 20.10450 -22.10760 21.59210 -20.56190 2.26934 17.40330 33.24470 -43.88640 
31.14300 99.15320 -38.83260 -6.90762 3.29510 -118.56300 1.21787 3.78043 1.97469 -5.34337 8.07623 4.74194 4.96654 -8.91392 -8.67593 0.00000 0.00000 0.00000 -70.18750 -3.76529 16.20210 -0.33411 13.41880 -15.16240 15.73460 10.77240 11.06930 -10.39570 0.58960 -11.29680 23.94380 -53.48500 88.38440 160.33299 -10.27480 168.24800 -6.81726 10.83650 -22.07600 13.49000 -8.87607 8.60987 -7.35058 10.79290 29.17070 2.74589 -1.64268 -0.15027 10.05830 13.76130 0.70147 -15.77220 12.26380 0.19046 3.22530 20.75940 -22.62090 21.64560 -18.45520 1.86843 18.10570 33.53970 -45.57450 
29.52770 99.24740 -38.17990 -7.26790 3.04961 -117.56000 1.01494 3.78843 1.96704 -5.41971 8.05391 4.74630 4.96189 -8.42560 -8.74649 0.00000 0.00000 0.00000 -70.71650 -3.32061 16.03410 -0.10136 14.19220 -15.73580 15.48600 10.80030 11.40250 -10.38310 0.58600 -11.24290 24.13570 -53.54730 88.38140 161.93800 -3.02967 168.45300 -8.64643 11.11400 -22.01760 12.14330 -8.92416 9.20895 -6.89244 12.02410 27.59150 2.37341 -1.07805 -0.14572 8.24604 11.23570 1.22955 -17.05200 12.53190 1.13198 3.55311 21.64760 -23.51790 21.80860 -16.11840 1.43329 19.10270 34.14090 -47.34650 
27.91290 99.35310 -37.49420 -7.59531 2.76637 -116.62400 0.81586 3.79172 1.97687 -5.46679 8.01546 4.77544 4.86831 -8.10650 -8.80721 0.00000 0.00000 0.00000 -71.19930 -2.77075 15.87410 0.12021 15.08320 -16.54290 15.36380 10.82680 11.67190 -10.46890 0.59149 -11.20940 24.18030 -53.57100 88.28990 163.40401 4.55344 168.59700 -9.91310 11.32310 -22.19830 10.71650 -8.83841 9.44429 -6.45190 13.02420 26.47920 2.12121 -0.87216 -0.13624 6.43629 8.63863 1.71102 -18.28370 12.44700 1.99626 3.82047 22.90810 -24.62220 21.92220 -13.68120 0.97284 20.45930 35.06700 -49.26080 
26.32790 99.46940 -36.79360 -7.87498 2.49053 -115.81000 0.64613 3.79757 2.01837 -5.47959 7.97961 4.86429 4.72027 -8.00236 -8.83558 0.00000 0.00000 0.00000 -71.61100 -2.12018 15.66930 0.32076 15.97440 -17.55350 15.40230 10.85220 11.85240 -10.59320 0.60095 -11.19320 24.03050 -53.55000 88.11630 164.36600 10.69190 168.67000 -10.58980 11.46280 -22.59850 9.32732 -8.58783 9.33320 -6.13915 13.73590 25.87690 2.08192 -0.95061 -0.13202 4.70210 6.11710 1.99206 -19.36610 11.91020 2.75783 3.98101 24.64560 -25.68960 21.75230 -11.18010 0.48958 22.10160 36.24840 -51.15880 
24.79480 99.59500 -36.09670 -8.09877 2.25878 -115.17400 0.51147 3.81530 2.10254 -5.46562 7.96675 5.03970 4.56247 -8.07271 -8.79382 0.00000 0.00000 0.00000 -71.90020 -1.47336 15.39400 0.52167 16.86440 -18.78290 15.58470 10.88000 11.97510 -10.66710 0.60643 -11.18120 23.78170 -53.53200 88.00270 164.78700 14.74900 168.72600 -10.79640 11.53370 -23.02750 8.07406 -8.17860 8.99962 -5.99851 14.18230 25.72180 2.23277 -1.21199 -0.13421 3.06257 3.76804 1.95121 -20.22340 10.86400 3.44252 4.03381 26.88060 -26.44840 21.12740 -8.62560 0.00362 23.79960 37.60580 -52.54540 
23.32690 99.73060 -35.42400 -8.26671 2.08232 -114.71100 0.39527 3.84836 2.21987 -5.43396 7.98346 5.28095 4.41294 -8.24023 -8.66205 0.00000 0.00000 0.00000 -71.99170 -0.98250 15.07580 0.73598 17.80000 -20.27390 15.82570 10.90790 12.06520 -10.64270 0.60342 -11.16110 23.58430 -53.55660 88.10700 164.89600 17.33700 168.78300 -10.72260 11.55280 -23.38170 6.98287 -7.66564 8.60265 -5.96463 14.46530 25.81150 2.37256 -1.63752 -0.13074 1.69899 1.88976 1.63004 -20.81510 9.33822 4.06521 4.03056 29.53600 -26.66340 20.06160 -6.15569 -0.42948 25.19060 39.04290 -52.79260 
21.92760 99.87110 -34.79730 -8.39396 1.95850 -114.32600 0.29360 3.89327 2.33254 -5.38872 8.02667 5.51354 4.26258 -8.43983 -8.45448 0.00000 0.00000 0.00000 -71.82710 -0.75324 14.76270 0.93799 18.76730 -22.03490 16.03010 10.92790 12.11170 -10.55580 0.59442 -11.12280 23.51170 -53.60420 88.44250 164.89200 19.16830 168.84000 -10.52870 11.54810 -23.69910 6.02112 -7.11599 8.26499 -5.91467 14.70440 25.88290 2.30957 -2.22139 -0.11215 0.74936 0.67318 1.15136 -21.11880 7.45393 4.58997 4.04161 32.51080 -26.17720 18.77960 -4.12436 -0.73547 25.88080 40.34730 -51.58930 
20.61750 99.98990 -34.24310 -8.51266 1.88068 -113.86500 0.21655 3.93749 2.38188 -5.32428 8.08937 5.65196 4.11243 -8.62956 -8.19742 0.00000 0.00000 0.00000 -71.43150 -0.74923 14.46730 1.10380 19.64620 -23.98890 16.17000 10.93560 12.09800 -10.47740 0.58493 -11.05930 23.55800 -53.63240 88.88700 164.85699 20.48260 168.86501 -10.32970 11.53740 -23.96780 5.16033 -6.60137 8.02912 -5.76720 15.01200 25.75830 2.03264 -2.87279 -0.08348 0.04767 -0.12819 0.55269 -21.10780 5.33310 4.93125 4.10716 35.81110 -24.99620 17.57300 -2.98916 -0.86514 25.58690 41.16480 -49.11970 
19.38530 100.08600 -33.77140 -8.63999 1.86264 -113.21100 0.17661 3.97814 2.35014 -5.23531 8.16427 5.64860 3.98839 -8.77441 -7.90751 0.00000 0.00000 0.00000 -70.90700 -0.80576 14.16040 1.25396 20.28010 -25.98970 16.29180 10.93650 12.04310 -10.42290 0.57647 -10.97500 23.69890 -53.62100 89.31410 164.85800 21.21530 168.77901 -10.18600 11.52350 -24.09610 4.40415 -6.09023 7.83292 -5.53709 15.32710 25.43250 1.72153 -3.46116 -0.05804 -0.67724 -0.90451 -0.16013 -20.77100 3.15712 5.01159 4.21715 39.25880 -23.37300 16.53660 -2.89234 -0.83527 24.25230 41.14710 -45.84250 
18.20640 100.17800 -33.38250 -8.78596 1.91472 -112.32400 0.15860 4.01269 2.25382 -5.12235 8.23261 5.50674 3.91930 -8.82954 -7.60928 0.00000 0.00000 0.00000 -70.34320 -0.77010 13.81840 1.41418 20.60230 -27.88630 16.45290 10.93720 11.96790 -10.35370 0.56622 -10.87570 23.84320 -53.56490 89.60250 164.96500 21.29940 168.53700 -10.09780 11.50470 -24.05220 3.76836 -5.50848 7.58355 -5.29537 15.53780 24.96930 1.55258 -3.96819 -0.04188 -1.44708 -1.71254 -0.90533 -20.14370 1.08427 4.82947 4.36444 42.56740 -21.78770 15.59640 -3.57322 -0.70658 22.12450 40.17550 -42.27150 
17.06180 100.28400 -33.07700 -8.96063 2.02575 -111.22300 0.13696 4.03549 2.11474 -4.98418 8.27573 5.25810 3.91638 -8.76036 -7.35219 0.00000 0.00000 0.00000 -69.76900 -0.58944 13.42950 1.54930 20.65950 -29.55460 16.67700 10.93330 11.83130 -10.24540 0.55224 -10.75980 23.75950 -53.45510 89.57320 165.17500 20.83810 168.20399 -10.04680 11.48200 -23.88210 3.25307 -4.80716 7.24459 -5.08741 15.59180 24.39600 1.56058 -4.46827 -0.03229 -2.08185 -2.34119 -1.57518 -19.30300 -0.80883 4.46676 4.58671 45.48880 -20.69190 14.72120 -4.62009 -0.54626 19.72840 38.49240 -38.96210 
15.93080 100.41600 -32.84990 -9.15574 2.17133 -109.95900 0.10672 4.05546 1.94618 -4.82144 8.30915 4.92704 3.97334 -8.58154 -7.18886 0.00000 0.00000 0.00000 -69.19330 -0.31065 12.93980 1.58374 20.52520 -30.90640 16.95330 10.91420 11.56560 -10.11920 0.53696 -10.64100 23.23560 -53.27970 89.11530 165.35699 20.09990 167.92101 -10.05490 11.46180 -23.62040 2.84014 -3.97326 6.80510 -4.91757 15.46330 23.73500 1.70615 -4.99644 -0.02527 -2.47479 -2.66905 -2.12371 -18.32540 -2.51033 4.02053 4.91551 47.84470 -20.22030 13.98030 -5.73129 -0.39689 17.62170 36.61460 -36.38730 
14.80110 100.57400 -32.69160 -9.34694 2.31311 -108.59100 0.06748 4.09483 1.75532 -4.64440 8.37694 4.52971 4.07033 -8.35426 -7.15455 0.00000 0.00000 0.00000 -68.65450 -0.04493 12.26020 1.46827 20.22230 -31.90600 17.24180 10.87120 11.13690 -10.03130 0.52635 -10.55540 22.34150 -53.04370 88.35260 165.36600 19.36720 167.79401 -10.16430 11.45320 -23.29620 2.49226 -3.04555 6.24418 -4.76802 15.16330 23.03530 1.94459 -5.53159 -0.01847 -2.64961 -2.73747 -2.55469 -17.26910 -4.05901 3.54046 5.29193 49.55040 -20.15590 13.44220 -6.78391 -0.26992 16.09670 35.03390 -34.67260 
13.67050 100.74300 -32.58920 -9.51066 2.41286 -107.18900 0.00590 4.16568 1.56481 -4.46354 8.50076 4.10811 4.17576 -8.15835 -7.26434 0.00000 0.00000 0.00000 -68.21160 0.11227 11.34860 1.19153 19.72420 -32.57730 17.48140 10.79890 10.54030 -10.02810 0.52525 -10.53590 21.41060 -52.79350 87.57130 165.21400 18.84560 167.80800 -10.35630 11.45940 -22.99540 2.16249 -2.08975 5.59307 -4.59873 14.75310 22.32680 2.20485 -6.06510 -0.00977 -2.64767 -2.60272 -2.88545 -16.17650 -5.51135 3.04626 5.57437 50.58980 -20.12810 13.13280 -7.76974 -0.15970 15.11150 33.93950 -33.56090 
12.53770 100.90400 -32.52820 -9.63506 2.45142 -105.82600 -0.09920 4.25565 1.41038 -4.28789 8.65336 3.72788 4.27095 -8.06430 -7.50068 0.00000 0.00000 0.00000 -67.88880 0.11225 10.26160 0.77395 19.04150 -33.01450 17.58820 10.69710 9.80307 -10.08180 0.53167 -10.58760 20.73790 -52.59840 86.99920 165.07500 18.69800 167.85800 -10.53610 11.47460 -22.83340 1.82407 -1.16143 4.95052 -4.38252 14.32530 21.60860 2.39925 -6.64703 0.00331 -2.46000 -2.24080 -3.15557 -15.07180 -6.91064 2.57361 5.64029 50.99290 -19.85170 13.06190 -8.74703 -0.05327 14.44610 33.23200 -32.64620 
